<svg width="56" height="45" viewBox="0 0 56 45" fill="none" xmlns="http://www.w3.org/2000/svg">
<path d="M21.8893 30.8293C21.8893 33.224 20.6536 37.1427 17.7286 37.1427C14.8036 37.1427 13.5679 33.224 13.5679 30.8293C13.5679 28.4346 14.8036 24.516 17.7286 24.516C20.6536 24.516 21.8893 28.4346 21.8893 30.8293V30.8293ZM55.209 25.043C55.209 28.6981 54.8462 32.5709 53.225 35.9281C48.9283 44.7049 37.115 44.4987 28.6576 44.4987C20.064 44.4987 7.54791 44.8081 3.08111 35.9281C1.42589 32.6053 0.791016 28.6981 0.791016 25.043C0.791016 20.2421 2.36687 15.7048 5.4959 12.0267C4.90638 10.2164 4.62295 8.31435 4.62295 6.43524C4.62295 3.97177 5.17847 2.73431 6.27816 0.5C11.4139 0.5 14.7016 1.53122 18.6129 4.62488C21.9007 3.83428 25.2791 3.47908 28.6689 3.47908C31.7299 3.47908 34.8136 3.81136 37.7839 4.53321C41.6385 1.47393 44.9263 0.5 50.0053 0.5C51.1163 2.73431 51.6605 3.97177 51.6605 6.43524C51.6605 8.31435 51.3657 10.182 50.7875 11.958C53.9052 15.6704 55.209 20.2421 55.209 25.043V25.043ZM47.9193 30.8293C47.9193 25.7992 44.8923 21.365 39.5865 21.365C37.4438 21.365 35.3918 21.7546 33.2377 22.0525C31.5485 22.316 29.8593 22.4191 28.1247 22.4191C26.4015 22.4191 24.7123 22.316 23.0117 22.0525C20.8917 21.7546 18.817 21.365 16.6629 21.365C11.3572 21.365 8.33017 25.7992 8.33017 30.8293C8.33017 40.8894 17.4452 42.4362 25.3811 42.4362H30.8456C38.8156 42.4362 47.9193 40.9009 47.9193 30.8293V30.8293ZM38.5548 24.516C35.6299 24.516 34.3941 28.4346 34.3941 30.8293C34.3941 33.224 35.6299 37.1427 38.5548 37.1427C41.4798 37.1427 42.7155 33.224 42.7155 30.8293C42.7155 28.4346 41.4798 24.516 38.5548 24.516Z" fill="white"/>
</svg>
