<svg width="56" height="33" viewBox="0 0 56 33" fill="none" xmlns="http://www.w3.org/2000/svg">
<path d="M53.9688 2.23781C54.3426 0.94875 53.9688 0 52.1706 0H46.2204C44.7051 0 44.008 0.814687 43.6343 1.72219C43.6343 1.72219 40.6036 9.26062 36.3203 14.1487C34.9363 15.5616 34.2999 16.0153 33.5422 16.0153C33.1684 16.0153 32.5926 15.5616 32.5926 14.2725V2.23781C32.5926 0.690937 32.1683 0 30.9156 0H21.5611C20.6114 0 20.0457 0.721875 20.0457 1.39219C20.0457 2.85656 22.1874 3.19687 22.4096 7.32188V16.2731C22.4096 18.2325 22.0662 18.5934 21.3085 18.5934C19.2881 18.5934 14.3784 11.0241 11.469 2.36156C10.8831 0.680625 10.3072 0 8.78182 0H2.83165C1.13449 0 0.791016 0.814687 0.791016 1.72219C0.791016 3.33094 2.81145 11.3231 10.1961 21.8831C15.1159 29.0916 22.046 33 28.3497 33C32.138 33 32.6027 32.1338 32.6027 30.6384C32.6027 23.7497 32.2592 23.1 34.1584 23.1C35.0373 23.1 36.5527 23.5538 40.0884 27.0291C44.1293 31.1541 44.796 33 47.0589 33H53.0091C54.7062 33 55.5649 32.1338 55.0699 30.4219C53.9385 26.8228 46.2911 19.4184 45.9477 18.9234C45.0688 17.7684 45.3213 17.2528 45.9477 16.2216C45.9578 16.2113 53.2212 5.775 53.9688 2.23781Z" fill="white"/>
</svg>
